<svg viewBox="0 0 1359 117" fill="none" xmlns="http://www.w3.org/2000/svg" width="100%" height="100%" preserveAspectRatio="xMinYMid meet"> <path fill-rule="evenodd" clip-rule="evenodd" d="M1111.08 92L1123.16 104.078L1111.08 116.156L1099 104.078L1111.08 92Z" fill="#FFFFFF"></path> <path d="M922.708 96.8333C931.802 96.8333 939.021 93.4792 944.354 86.7708C949.698 80.0625 952.375 70.5208 952.375 58.1458C952.375 45.8125 949.698 36.2865 944.354 29.5625C939.021 22.8281 931.802 19.4583 922.708 19.4583C913.609 19.4583 906.354 22.8125 900.938 29.5208C895.521 36.2292 892.813 45.7708 892.813 58.1458C892.813 70.5208 895.521 80.0625 900.938 86.7708C906.354 93.4792 913.609 96.8333 922.708 96.8333ZM975.333 58.1458C975.333 77.8698 969.792 92.974 958.708 103.458C950.417 112.016 938.417 116.292 922.708 116.292C907 116.292 895 112.016 886.708 103.458C875.568 92.974 870 77.8698 870 58.1458C870 38.0208 875.568 22.9115 886.708 12.8125C895 4.27084 907 7.62939e-06 922.708 7.62939e-06C938.417 7.62939e-06 950.417 4.27084 958.708 12.8125C969.792 22.9115 975.333 38.0208 975.333 58.1458Z" fill="#FFFFFF"></path> <path d="M546.521 25.3646H497.578L488.427 34.5104V39.6615L497.604 48.8333L497.589 48.849H541.766V67.9115H497.589L497.604 67.9323L488.427 77.1042V87.0208L497.531 96.125H549.219V115.797H466V6H546.521V25.3646Z" fill="#FFFFFF"></path> <path d="M37.6094 74.401H65.7031L51.8594 31.1406L37.6094 74.401ZM39.1615 6H65.1146L103.844 115.927H78.9583L71.7604 93.3333H31.375L23.9167 115.927H0L39.1615 6Z" fill="#FFFFFF"></path> <path fill-rule="evenodd" clip-rule="evenodd" d="M37.6198 65.0156L49.6979 77.0938L37.6198 89.1719L25.5417 77.0938L37.6198 65.0156Z" fill="#FFFFFF"></path> <path fill-rule="evenodd" clip-rule="evenodd" d="M66.2239 65.0156L78.3021 77.0938L66.2239 89.1719L54.1458 77.0938L66.2239 65.0156Z" fill="#FFFFFF"></path> <path fill-rule="evenodd" clip-rule="evenodd" d="M26.7656 80.3542L38.8438 92.4323L26.7656 104.51L14.6875 92.4323L26.7656 80.3542Z" fill="#FFFFFF"></path> <path fill-rule="evenodd" clip-rule="evenodd" d="M77.0781 80.3542L89.1563 92.4323L77.0781 104.51L65 92.4323L77.0781 80.3542Z" fill="#FFFFFF"></path> <path d="M714.609 74.401H742.703L728.859 31.1406L714.609 74.401ZM716.161 6H742.115L780.844 115.927H755.958L748.76 93.3333H708.375L700.917 115.927H677L716.161 6Z" fill="#FFFFFF"></path> <path fill-rule="evenodd" clip-rule="evenodd" d="M714.62 65.0156L726.698 77.0938L714.62 89.1719L702.542 77.0938L714.62 65.0156Z" fill="#FFFFFF"></path> <path fill-rule="evenodd" clip-rule="evenodd" d="M743.224 65.0156L755.302 77.0938L743.224 89.1719L731.146 77.0938L743.224 65.0156Z" fill="#FFFFFF"></path> <path fill-rule="evenodd" clip-rule="evenodd" d="M703.766 80.3542L715.844 92.4323L703.766 104.51L691.688 92.4323L703.766 80.3542Z" fill="#FFFFFF"></path> <path fill-rule="evenodd" clip-rule="evenodd" d="M754.078 80.3542L766.156 92.4323L754.078 104.51L742 92.4323L754.078 80.3542Z" fill="#FFFFFF"></path> <path d="M192.234 38.1042C190.505 30.599 186.229 25.3802 179.49 22.401C175.698 20.75 171.5 19.9323 166.865 19.9323C158.01 19.9323 150.734 23.2656 145.057 29.9323C139.359 36.6042 136.51 46.625 136.51 60.0104C136.51 73.5 139.589 83.0417 145.771 88.6406C151.927 94.2344 158.927 97.0365 166.792 97.0365C174.5 97.0365 180.813 94.8229 185.75 90.4219C190.656 85.9948 193.714 80.2135 194.859 73.0677H169.333V54.7448H215.135V113.677H200.021L197.656 99.9375C193.229 105.104 189.26 108.766 185.724 110.88C179.667 114.568 172.182 116.427 163.354 116.427C148.776 116.427 136.839 111.385 127.552 101.313C117.859 91.2083 113 77.3646 113 59.7813C113 42.0208 117.906 27.7969 127.703 17.0833C137.5 6.36979 150.453 1 166.563 1C180.531 1 191.776 4.54167 200.25 11.6146C208.724 18.6875 213.583 27.5156 214.833 38.1042H192.234Z" fill="#FFFFFF"></path> <path fill-rule="evenodd" clip-rule="evenodd" d="M193.828 60.5521L205.906 72.6302L193.828 84.7083L181.75 72.6302L193.828 60.5521Z" fill="#FFFFFF"></path> <path fill-rule="evenodd" clip-rule="evenodd" d="M200.026 89.5261L212.104 101.604L200.026 113.682L187.948 101.604L200.026 89.5261Z" fill="#FFFFFF"></path> <path d="M640.234 38.1042C638.505 30.599 634.229 25.3802 627.49 22.401C623.698 20.75 619.5 19.9323 614.865 19.9323C606.01 19.9323 598.734 23.2656 593.057 29.9323C587.359 36.6042 584.51 46.625 584.51 60.0104C584.51 73.5 587.589 83.0417 593.771 88.6406C599.927 94.2344 606.927 97.0365 614.792 97.0365C622.5 97.0365 628.813 94.8229 633.75 90.4219C638.656 85.9948 641.714 80.2135 642.859 73.0677H617.333V54.7448H663.135V113.677H648.021L645.656 99.9375C641.229 105.104 637.26 108.766 633.724 110.88C627.667 114.568 620.182 116.427 611.354 116.427C596.776 116.427 584.839 111.385 575.552 101.313C565.859 91.2083 561 77.3646 561 59.7813C561 42.0208 565.906 27.7969 575.703 17.0833C585.5 6.36979 598.453 1 614.563 1C628.531 1 639.776 4.54167 648.25 11.6146C656.724 18.6875 661.583 27.5156 662.833 38.1042H640.234Z" fill="#FFFFFF"></path> <path fill-rule="evenodd" clip-rule="evenodd" d="M641.828 60.5521L653.906 72.6302L641.828 84.7083L629.75 72.6302L641.828 60.5521Z" fill="#FFFFFF"></path> <path fill-rule="evenodd" clip-rule="evenodd" d="M648.026 89.5261L660.104 101.604L648.026 113.682L635.948 101.604L648.026 89.5261Z" fill="#FFFFFF"></path> <path d="M1335.23 38.1042C1333.51 30.599 1329.23 25.3802 1322.49 22.401C1318.7 20.75 1314.5 19.9323 1309.86 19.9323C1301.01 19.9323 1293.73 23.2656 1288.06 29.9323C1282.36 36.6042 1279.51 46.625 1279.51 60.0104C1279.51 73.5 1282.59 83.0417 1288.77 88.6406C1294.93 94.2344 1301.93 97.0365 1309.79 97.0365C1317.5 97.0365 1323.81 94.8229 1328.75 90.4219C1333.66 85.9948 1336.71 80.2135 1337.86 73.0677H1312.33V54.7448H1358.14V113.677H1343.02L1340.66 99.9375C1336.23 105.104 1332.26 108.766 1328.72 110.88C1322.67 114.568 1315.18 116.427 1306.35 116.427C1291.78 116.427 1279.84 111.385 1270.55 101.313C1260.86 91.2083 1256 77.3646 1256 59.7813C1256 42.0208 1260.91 27.7969 1270.7 17.0833C1280.5 6.36979 1293.45 1 1309.56 1C1323.53 1 1334.78 4.54167 1343.25 11.6146C1351.72 18.6875 1356.58 27.5156 1357.83 38.1042H1335.23Z" fill="#FFFFFF"></path> <path fill-rule="evenodd" clip-rule="evenodd" d="M1336.83 60.5521L1348.91 72.6302L1336.83 84.7083L1324.75 72.6302L1336.83 60.5521Z" fill="#FFFFFF"></path> <path fill-rule="evenodd" clip-rule="evenodd" d="M1343.03 89.5261L1355.1 101.604L1343.03 113.682L1330.95 101.604L1343.03 89.5261Z" fill="#FFFFFF"></path> <path d="M1217.23 38.1042C1215.51 30.599 1211.23 25.3802 1204.49 22.401C1200.7 20.75 1196.5 19.9323 1191.86 19.9323C1183.01 19.9323 1175.73 23.2656 1170.06 29.9323C1164.36 36.6042 1161.51 46.625 1161.51 60.0104C1161.51 73.5 1164.59 83.0417 1170.77 88.6406C1176.93 94.2344 1183.93 97.0365 1191.79 97.0365C1199.5 97.0365 1205.81 94.8229 1210.75 90.4219C1215.66 85.9948 1218.71 80.2135 1219.86 73.0677H1194.33V54.7448H1240.14V113.677H1225.02L1222.66 99.9375C1218.23 105.104 1214.26 108.766 1210.72 110.88C1204.67 114.568 1197.18 116.427 1188.35 116.427C1173.78 116.427 1161.84 111.385 1152.55 101.313C1142.86 91.2083 1138 77.3646 1138 59.7813C1138 42.0208 1142.91 27.7969 1152.7 17.0833C1162.5 6.36979 1175.45 1 1191.56 1C1205.53 1 1216.78 4.54167 1225.25 11.6146C1233.72 18.6875 1238.58 27.5156 1239.83 38.1042H1217.23Z" fill="#FFFFFF"></path> <path fill-rule="evenodd" clip-rule="evenodd" d="M1218.83 60.5521L1230.91 72.6302L1218.83 84.7083L1206.75 72.6302L1218.83 60.5521Z" fill="#FFFFFF"></path> <path fill-rule="evenodd" clip-rule="evenodd" d="M1225.03 89.5261L1237.1 101.604L1225.03 113.682L1212.95 101.604L1225.03 89.5261Z" fill="#FFFFFF"></path> <path d="M310.234 38.1042C308.505 30.599 304.229 25.3802 297.49 22.401C293.698 20.75 289.5 19.9323 284.865 19.9323C276.01 19.9323 268.734 23.2656 263.057 29.9323C257.359 36.6042 254.51 46.625 254.51 60.0104C254.51 73.5 257.589 83.0417 263.771 88.6406C269.927 94.2344 276.927 97.0365 284.792 97.0365C292.5 97.0365 298.813 94.8229 303.75 90.4219C308.656 85.9948 311.714 80.2135 312.859 73.0677H287.333V54.7448H333.135V113.677H318.021L315.656 99.9375C311.229 105.104 307.26 108.766 303.724 110.88C297.667 114.568 290.182 116.427 281.354 116.427C266.776 116.427 254.839 111.385 245.552 101.313C235.859 91.2083 231 77.3646 231 59.7813C231 42.0208 235.906 27.7969 245.703 17.0833C255.5 6.36979 268.453 1 284.563 1C298.531 1 309.776 4.54167 318.25 11.6146C326.724 18.6875 331.583 27.5156 332.833 38.1042H310.234Z" fill="#FFFFFF"></path> <path fill-rule="evenodd" clip-rule="evenodd" d="M311.828 60.5521L323.906 72.6302L311.828 84.7083L299.75 72.6302L311.828 60.5521Z" fill="#FFFFFF"></path> <path fill-rule="evenodd" clip-rule="evenodd" d="M318.026 89.5261L330.104 101.604L318.026 113.682L305.948 101.604L318.026 89.5261Z" fill="#FFFFFF"></path> <path d="M378.448 24.9323V54.5521H403.177C408.089 54.5521 411.755 53.9427 414.224 52.7448C418.573 50.6615 420.734 46.5365 420.734 40.3542C420.734 33.6615 418.625 29.1823 414.427 26.8646C412.063 25.5677 408.521 24.9323 403.818 24.9323H378.448ZM408.599 6C416.104 6.15625 421.88 7.09375 425.927 8.82292C429.974 10.5833 433.411 13.125 436.234 16.5104C438.547 19.2865 440.406 22.3646 441.755 25.724C443.104 29.1042 443.792 32.9479 443.792 37.276C443.792 42.4896 442.469 47.6042 439.849 52.6458C437.203 57.6823 432.849 61.2448 426.792 63.3333C431.859 65.3646 435.443 68.2656 437.557 72.0313C439.667 75.776 440.74 81.526 440.74 89.2344V96.6406C440.74 101.677 440.943 105.089 441.349 106.87C441.958 109.719 443.385 111.807 445.625 113.156V115.927H420.203C419.49 113.484 418.979 111.526 418.677 110.026C418.068 106.943 417.734 103.766 417.682 100.531L417.531 90.276C417.427 83.2552 416.234 78.5729 413.891 76.2344C411.578 73.8906 407.224 72.7188 400.839 72.7188H378.448V115.927H356V6H408.599Z" fill="#FFFFFF"></path> <path fill-rule="evenodd" clip-rule="evenodd" d="M376.49 12.0417L388.568 24.1198L376.49 36.1979L364.411 24.1198L376.49 12.0417Z" fill="#FFFFFF"></path> <path fill-rule="evenodd" clip-rule="evenodd" d="M376.49 43.599L388.568 55.6771L376.49 67.75L364.411 55.6771L376.49 43.599Z" fill="#FFFFFF"></path> <path fill-rule="evenodd" clip-rule="evenodd" d="M376.49 59.5417L388.568 71.6198L376.49 83.6979L364.411 71.6198L376.49 59.5417Z" fill="#FFFFFF"></path> <path fill-rule="evenodd" clip-rule="evenodd" d="M414.786 54.2552H431.87V71.3333H414.786V54.2552Z" fill="#FFFFFF"></path> <path d="M1015.45 24.9323V54.5521H1040.18C1045.09 54.5521 1048.76 53.9427 1051.22 52.7448C1055.57 50.6615 1057.73 46.5365 1057.73 40.3542C1057.73 33.6615 1055.63 29.1823 1051.43 26.8646C1049.06 25.5677 1045.52 24.9323 1040.82 24.9323H1015.45ZM1045.6 6C1053.1 6.15625 1058.88 7.09375 1062.93 8.82292C1066.97 10.5833 1070.41 13.125 1073.23 16.5104C1075.55 19.2865 1077.41 22.3646 1078.76 25.724C1080.1 29.1042 1080.79 32.9479 1080.79 37.276C1080.79 42.4896 1079.47 47.6042 1076.85 52.6458C1074.2 57.6823 1069.85 61.2448 1063.79 63.3333C1068.86 65.3646 1072.44 68.2656 1074.56 72.0313C1076.67 75.776 1077.74 81.526 1077.74 89.2344V96.6406C1077.74 101.677 1077.94 105.089 1078.35 106.87C1078.96 109.719 1080.39 111.807 1082.63 113.156V115.927H1057.2C1056.49 113.484 1055.98 111.526 1055.68 110.026C1055.07 106.943 1054.73 103.766 1054.68 100.531L1054.53 90.276C1054.43 83.2552 1053.23 78.5729 1050.89 76.2344C1048.58 73.8906 1044.22 72.7188 1037.84 72.7188H1015.45V115.927H993V6H1045.6Z" fill="#FFFFFF"></path> <path fill-rule="evenodd" clip-rule="evenodd" d="M1013.49 12.0417L1025.57 24.1198L1013.49 36.1979L1001.41 24.1198L1013.49 12.0417Z" fill="#FFFFFF"></path> <path fill-rule="evenodd" clip-rule="evenodd" d="M1013.49 43.599L1025.57 55.6771L1013.49 67.75L1001.41 55.6771L1013.49 43.599Z" fill="#FFFFFF"></path> <path fill-rule="evenodd" clip-rule="evenodd" d="M1013.49 59.5417L1025.57 71.6198L1013.49 83.6979L1001.41 71.6198L1013.49 59.5417Z" fill="#FFFFFF"></path> <path fill-rule="evenodd" clip-rule="evenodd" d="M1051.79 54.2552H1068.87V71.3333H1051.79V54.2552Z" fill="#FFFFFF"></path> <path d="M864.01 6V25.3906H831.036V115.927H807.979V25.3906H775V6H864.01Z" fill="#FFFFFF"></path> <path fill-rule="evenodd" clip-rule="evenodd" d="M809.646 12.2396L821.724 24.3177L809.646 36.3958L797.568 24.3177L809.646 12.2396Z" fill="#FFFFFF"></path> <path fill-rule="evenodd" clip-rule="evenodd" d="M829.37 12.2396L841.448 24.3177L829.37 36.3958L817.292 24.3177L829.37 12.2396Z" fill="#FFFFFF"></path> </svg>